<svg id="visual" viewBox="0 0 960 540" width="960" height="540" xmlns="http://www.w3.org/2000/svg" xmlns:xlink="http://www.w3.org/1999/xlink" version="1.1"><rect x="0" y="0" width="960" height="540" fill="#fff"></rect><defs><linearGradient id="grad1_0" x1="43.8%" y1="100%" x2="100%" y2="0%"><stop offset="14.444444444444446%" stop-color="#ffffff" stop-opacity="1"></stop><stop offset="85.55555555555554%" stop-color="#ffffff" stop-opacity="1"></stop></linearGradient></defs><defs><linearGradient id="grad2_0" x1="0%" y1="100%" x2="56.3%" y2="0%"><stop offset="14.444444444444446%" stop-color="#ffffff" stop-opacity="1"></stop><stop offset="85.55555555555554%" stop-color="#ffffff" stop-opacity="1"></stop></linearGradient></defs><g transform="translate(960, 540)"><path d="M-530 0C-516.1 -66.9 -502.2 -133.8 -479.5 -198.6C-456.7 -263.4 -425.1 -326.1 -379 -379C-332.9 -432 -272.2 -475.2 -206.6 -498.9C-141.1 -522.6 -70.5 -526.8 0 -531L0 0Z" fill="#de8432"></path></g><g transform="translate(0, 0)"><path d="M538 0C525.8 69.1 513.6 138.2 488.7 202.4C463.9 266.7 426.4 326 378.3 378.3C330.2 430.6 271.5 475.9 206.6 498.9C141.8 521.8 70.9 522.4 0 523L0 0Z" fill="#de8432"></path></g></svg>