<?xml version="1.0" encoding="utf-8"?>
<!-- Generator: Adobe Illustrator 16.0.3, SVG Export Plug-In . SVG Version: 6.00 Build 0)  -->
<!DOCTYPE svg PUBLIC "-//W3C//DTD SVG 1.1//EN" "http://www.w3.org/Graphics/SVG/1.1/DTD/svg11.dtd">
<svg version="1.1" id="Capa_1" xmlns="http://www.w3.org/2000/svg" xmlns:xlink="http://www.w3.org/1999/xlink" x="0px" y="0px"
	 width="350.953px" height="350.953px" viewBox="0 0 350.953 350.953" enable-background="new 0 0 350.953 350.953"
	 xml:space="preserve">
<g>
	<g>
		<path d="M350.337,135.026c-1.471-4.53-5.38-7.83-10.091-8.51l-106.109-15.42l-47.45-96.15c-2.11-4.27-6.45-6.97-11.21-6.97
			s-9.1,2.7-11.21,6.97l-47.45,96.15l-106.11,15.42c-4.71,0.68-8.62,3.98-10.09,8.51c-1.47,4.52-0.25,9.49,3.16,12.81l76.78,74.84
			l-18.12,105.68c-0.81,4.7,1.12,9.44,4.97,12.23c3.85,2.8,8.95,3.17,13.16,0.949l94.91-49.89l94.91,49.89
			c1.83,0.971,3.82,1.44,5.81,1.44c2.601,0,5.17-0.8,7.351-2.39c3.85-2.79,5.779-7.53,4.97-12.221l-18.12-105.68l76.78-74.85
			C350.587,144.517,351.806,139.546,350.337,135.026z M248.236,209.366c-2.939,2.87-4.29,7.011-3.59,11.061l14.95,87.2l-78.3-41.17
			c-3.65-1.91-8-1.91-11.64,0l-78.3,41.17l14.95-87.2c0.7-4.05-0.65-8.19-3.59-11.061l-63.35-61.75l87.55-12.72
			c4.07-0.6,7.59-3.15,9.41-6.84l39.15-79.34l39.15,79.34c1.819,3.69,5.35,6.24,9.42,6.84l87.55,12.72L248.236,209.366z"/>
		<path fill="#FAB01D" d="M244.646,220.427l14.95,87.2l-78.3-41.17c-3.65-1.91-8-1.91-11.64,0l-78.3,41.17l14.95-87.2
			c0.7-4.05-0.65-8.19-3.59-11.061l-63.35-61.75l87.55-12.72c4.07-0.6,7.59-3.15,9.41-6.84l39.15-79.34l39.15,79.34
			c1.819,3.69,5.35,6.24,9.42,6.84l87.55,12.72l-63.36,61.75C245.297,212.236,243.946,216.377,244.646,220.427z"/>
	</g>
</g>
</svg>
