<?xml version="1.0" standalone="no"?><svg xmlns:xlink="http://www.w3.org/1999/xlink" xmlns="http://www.w3.org/2000/svg" viewBox="0 0 1000 583.3397116979206" preserveAspectRatio="xMaxYMax slice"><g transform="scale(1.0205383339711698)"><rect x="0" y="0" width="979.8857142857144" height="571.6" fill="#ffe9ce"/><path d="M 163.31 0 A 81.66 81.66 0 0 1  244.97 81.66 L 163.31 0 A 81.66 81.66 0 0 0 244.97 81.66" fill="#ad8968"/><path d="M 653.26 0 A 81.66 81.66 0 0 1  734.92 81.66 L 653.26 0 A 81.66 81.66 0 0 0 734.92 81.66" fill="#8c623f"/><path d="M 0 163.32 A 81.66 81.66 0 0 1  81.66 81.66 L 0 163.32 A 81.66 81.66 0 0 0 81.66 81.66" fill="#a07958"/><path d="M 244.97 81.66 A 81.66 81.66 0 0 1  326.63 163.32 L 244.97 81.66 A 81.66 81.66 0 0 0 326.63 163.32" fill="#fee8cd"/><rect x="326.62857142857143" y="81.65714285714286" width="81.65714285714286" height="81.65714285714286" fill="#ffe9ce"/><path d="M 326.63 122.49 A 40.83 40.83 0 0 1  367.46 81.66 L 326.63 122.49 A 40.83 40.83 0 0 0 367.46 81.66" fill="#f8d5af"/><path d="M 367.46 163.32 A 40.83 40.83 0 0 1  408.28999999999996 122.49 L 367.46 163.32 A 40.83 40.83 0 0 0 408.28999999999996 122.49" fill="#fadbb8"/><path d="M 816.57 81.66 A 81.66 81.66 0 0 1  898.23 163.32 L 816.57 81.66 A 81.66 81.66 0 0 0 898.23 163.32" fill="#f6cda3"/><rect x="734.9142857142857" y="163.31428571428572" width="81.65714285714286" height="81.65714285714286" fill="#ffe9ce"/><path d="M 734.91 204.14 A 40.83 40.83 0 0 1  775.74 163.31 L 734.91 204.14 A 40.83 40.83 0 0 0 775.74 163.31" fill="#f4c89b"/><path d="M 775.74 204.14 A 40.83 40.83 0 0 1  816.57 244.96999999999997 L 775.74 204.14 A 40.83 40.83 0 0 0 816.57 244.96999999999997" fill="#e08939"/><path d="M 816.57 244.97 A 81.66 81.66 0 0 1  898.23 163.31 L 816.57 244.97 A 81.66 81.66 0 0 0 898.23 163.31" fill="#eaa86a"/><path d="M 163.31 326.63 A 81.66 81.66 0 0 1  244.97 244.97 L 163.31 326.63 A 81.66 81.66 0 0 0 244.97 244.97" fill="#e8cdb1"/><path d="M 408.29 244.97 A 81.66 81.66 0 0 1  489.95000000000005 326.63 L 408.29 244.97 A 81.66 81.66 0 0 0 489.95000000000005 326.63" fill="#f1c08e"/><path d="M 816.57 244.97 A 81.66 81.66 0 0 1  898.23 326.63 L 816.57 244.97 A 81.66 81.66 0 0 0 898.23 326.63" fill="#f6cda2"/><rect x="0" y="326.62857142857143" width="81.65714285714286" height="81.65714285714286" fill="#ffe9ce"/><path d="M 489.94 326.63 A 81.66 81.66 0 0 1  571.6 408.28999999999996 L 489.94 326.63 A 81.66 81.66 0 0 0 571.6 408.28999999999996" fill="#edb37a"/><rect x="653.2571428571429" y="326.62857142857143" width="81.65714285714286" height="81.65714285714286" fill="#ffe9ce"/><path d="M 653.26 408.28999999999996 A 40.83 40.83 0 0 1  694.09 367.46 L 653.26 408.28999999999996 A 40.83 40.83 0 0 0 694.09 367.46" fill="#ffe8cc"/><path d="M 694.09 408.28999999999996 A 40.83 40.83 0 0 1  734.9200000000001 367.46 L 694.09 408.28999999999996 A 40.83 40.83 0 0 0 734.9200000000001 367.46" fill="#f4c89a"/><path d="M 734.91 408.28999999999996 A 81.66 81.66 0 0 1  816.5699999999999 326.63 L 734.91 408.28999999999996 A 81.66 81.66 0 0 0 816.5699999999999 326.63" fill="#ae8a6a"/><path d="M 0 408.29 A 81.66 81.66 0 0 1  81.66 489.95000000000005 L 0 408.29 A 81.66 81.66 0 0 0 81.66 489.95000000000005" fill="#dcc0a2"/><rect x="571.6" y="408.2857142857143" width="81.65714285714286" height="81.65714285714286" fill="#ffe9ce"/><rect x="734.9142857142857" y="408.2857142857143" width="81.65714285714286" height="81.65714285714286" fill="#ffe9ce"/><rect x="0" y="489.9428571428572" width="81.65714285714286" height="81.65714285714286" fill="#ffe9ce"/><path d="M 40.83 571.6 A 40.83 40.83 0 0 1  81.66 530.77 L 40.83 571.6 A 40.83 40.83 0 0 0 81.66 530.77" fill="#e69e5a"/><rect x="163.31428571428572" y="489.9428571428572" width="81.65714285714286" height="81.65714285714286" fill="#ffe9ce"/><path d="M 163.31 571.6 A 40.83 40.83 0 0 1  204.14 530.77 L 163.31 571.6 A 40.83 40.83 0 0 0 204.14 530.77" fill="#ecaf75"/><path d="M 204.14 530.77 A 40.83 40.83 0 0 1  244.96999999999997 571.6 L 204.14 530.77 A 40.83 40.83 0 0 0 244.96999999999997 571.6" fill="#fee6c9"/><path d="M 326.63 489.94 A 81.66 81.66 0 0 1  408.28999999999996 571.6 L 326.63 489.94 A 81.66 81.66 0 0 0 408.28999999999996 571.6" fill="#916745"/><rect x="653.2571428571429" y="489.9428571428572" width="81.65714285714286" height="81.65714285714286" fill="#ffe9ce"/><path d="M 653.26 489.94 A 40.83 40.83 0 0 1  694.09 530.77 L 653.26 489.94 A 40.83 40.83 0 0 0 694.09 530.77" fill="#e18d40"/></g></svg>